<?xml version="1.0" standalone="no"?>
<!DOCTYPE svg PUBLIC "-//W3C//DTD SVG 20010904//EN"
 "http://www.w3.org/TR/2001/REC-SVG-20010904/DTD/svg10.dtd">
<svg version="1.0" xmlns="http://www.w3.org/2000/svg"
 width="1024.000000pt" height="1024.000000pt" viewBox="0 0 1024.000000 1024.000000"
 preserveAspectRatio="xMidYMid meet">

<g transform="translate(0.000000,1024.000000) scale(0.100000,-0.100000)"
fill="#000000" stroke="none">
<path d="M3371 7490 c-103 -22 -189 -87 -237 -182 -21 -41 -28 -71 -32 -133
-5 -102 19 -172 85 -245 45 -50 107 -82 1800 -928 964 -482 1753 -879 1753
-882 0 -3 -790 -400 -1755 -883 -1337 -668 -1766 -887 -1799 -917 -70 -64 -99
-130 -104 -230 -3 -69 0 -96 18 -142 58 -155 240 -249 395 -204 32 10 989 483
2127 1052 1735 868 2078 1042 2118 1080 140 130 140 358 0 488 -40 38 -381
211 -2107 1074 -1132 566 -2074 1034 -2093 1040 -54 17 -121 21 -169 12z"/>
</g>
</svg>
